<svg width="284" height="284" viewBox="0 0 284 284" fill="none" xmlns="http://www.w3.org/2000/svg">
<g opacity="0.2" clip-path="url(#clip0_2234_8803)">
<path d="M142.097 0C63.5443 0 0 63.5443 0 142.097C0 220.456 63.5443 284.195 142.097 284.195C220.456 284.195 284.195 220.651 284.195 142.097C284 63.5443 220.456 0 142.097 0ZM142.097 275.034C68.6122 275.034 9.16129 215.583 9.16129 142.097C9.16129 68.6122 68.6122 9.16129 142.097 9.16129C215.583 9.16129 275.034 68.6122 275.034 142.097C275.034 215.388 215.388 275.034 142.097 275.034Z" fill="white"/>
<path d="M142.099 30.6025C80.6986 30.6025 30.7988 80.5023 30.7988 141.902C30.7988 203.303 80.6986 253.202 142.099 253.202C203.499 253.202 253.399 203.498 253.399 142.097C253.399 80.5023 203.499 30.6025 142.099 30.6025ZM142.099 236.244C90.0548 236.244 47.757 193.946 47.757 141.902C47.757 89.8585 90.0548 47.5607 142.099 47.5607C194.143 47.5607 236.441 89.8585 236.441 141.902C236.441 193.946 194.143 236.244 142.099 236.244Z" fill="white"/>
<path d="M142.098 79.5273C107.597 79.5273 79.5283 107.596 79.5283 142.097C79.5283 176.598 107.402 204.667 142.098 204.667C176.599 204.667 204.668 176.598 204.668 142.097C204.473 107.596 176.599 79.5273 142.098 79.5273ZM142.098 175.623C123.58 175.623 108.572 160.614 108.572 142.097C108.572 123.579 123.58 108.571 142.098 108.571C160.616 108.571 175.624 123.579 175.624 142.097C175.624 160.614 160.616 175.623 142.098 175.623Z" fill="white"/>
</g>
<defs>
<clipPath id="clip0_2234_8803">
<rect width="284" height="284" fill="white"/>
</clipPath>
</defs>
</svg>
