<svg width="182" height="133" viewBox="0 0 182 133" fill="none" xmlns="http://www.w3.org/2000/svg">
<g opacity="0.8" clip-path="url(#clip0_2234_9590)">
<path d="M5.16964 39.1505C5.16964 40.6226 4.06186 41.7267 2.58482 41.7267C1.10778 41.7267 0 40.6226 0 39.1505C0 37.6783 1.10778 36.5742 2.58482 36.5742C4.06186 36.5742 5.16964 37.801 5.16964 39.1505Z" fill="#FFCF2D"/>
<path d="M27.2024 39.1505C27.2024 40.6226 26.0946 41.7267 24.6175 41.7267C23.1405 41.7267 22.0327 40.6226 22.0327 39.1505C22.0327 37.6783 23.1405 36.5742 24.6175 36.5742C25.9715 36.5742 27.2024 37.801 27.2024 39.1505Z" fill="#FFCF2D"/>
<path d="M49.1115 39.1505C49.1115 40.6226 48.0037 41.7267 46.5267 41.7267C45.0497 41.7267 43.9419 40.6226 43.9419 39.1505C43.9419 37.6783 45.0497 36.5742 46.5267 36.5742C48.0037 36.5742 49.1115 37.801 49.1115 39.1505Z" fill="#FFCF2D"/>
<path d="M71.1438 39.1505C71.1438 40.6226 70.036 41.7267 68.5589 41.7267C67.0819 41.7267 65.9741 40.6226 65.9741 39.1505C65.9741 37.6783 67.0819 36.5742 68.5589 36.5742C70.036 36.5742 71.1438 37.801 71.1438 39.1505Z" fill="#FFCF2D"/>
<path d="M93.1765 39.1505C93.1765 40.6226 92.0687 41.7267 90.5917 41.7267C89.1146 41.7267 88.0068 40.6226 88.0068 39.1505C88.0068 37.6783 89.1146 36.5742 90.5917 36.5742C91.9456 36.5742 93.1765 37.801 93.1765 39.1505Z" fill="#FFCF2D"/>
<path d="M115.209 39.1505C115.209 40.6226 114.101 41.7267 112.624 41.7267C111.147 41.7267 110.04 40.6226 110.04 39.1505C110.04 37.6783 111.147 36.5742 112.624 36.5742C114.101 36.5742 115.209 37.801 115.209 39.1505Z" fill="#FFCF2D"/>
<path d="M137.118 39.1505C137.118 40.6226 136.011 41.7267 134.534 41.7267C133.057 41.7267 131.949 40.6226 131.949 39.1505C131.949 37.6783 133.057 36.5742 134.534 36.5742C136.011 36.5742 137.118 37.801 137.118 39.1505Z" fill="#FFCF2D"/>
<path d="M159.151 39.1505C159.151 40.6226 158.043 41.7267 156.566 41.7267C155.089 41.7267 153.981 40.6226 153.981 39.1505C153.981 37.6783 155.089 36.5742 156.566 36.5742C158.043 36.5742 159.151 37.801 159.151 39.1505Z" fill="#FFCF2D"/>
<path d="M181.184 39.1505C181.184 40.6226 180.076 41.7267 178.599 41.7267C177.122 41.7267 176.014 40.6226 176.014 39.1505C176.014 37.6783 177.122 36.5742 178.599 36.5742C179.953 36.5742 181.184 37.801 181.184 39.1505Z" fill="#FFCF2D"/>
<path d="M5.16964 57.4298C5.16964 58.9019 4.06186 60.006 2.58482 60.006C1.10778 60.006 0 58.9019 0 57.4298C0 55.9576 1.10778 54.8535 2.58482 54.8535C4.06186 54.8535 5.16964 55.9576 5.16964 57.4298Z" fill="#FFCF2D"/>
<path d="M27.2024 57.4298C27.2024 58.9019 26.0946 60.006 24.6175 60.006C23.1405 60.006 22.0327 58.9019 22.0327 57.4298C22.0327 55.9576 23.1405 54.8535 24.6175 54.8535C25.9715 54.8535 27.2024 55.9576 27.2024 57.4298Z" fill="#FFCF2D"/>
<path d="M49.1115 57.4298C49.1115 58.9019 48.0038 60.006 46.5267 60.006C45.0497 60.006 43.9419 58.9019 43.9419 57.4298C43.9419 55.9576 45.0497 54.8535 46.5267 54.8535C48.0038 54.8535 49.1115 55.9576 49.1115 57.4298Z" fill="#FFCF2D"/>
<path d="M71.1438 57.4298C71.1438 58.9019 70.036 60.006 68.5589 60.006C67.0819 60.006 65.9741 58.9019 65.9741 57.4298C65.9741 55.9576 67.0819 54.8535 68.5589 54.8535C70.036 54.8535 71.1438 55.9576 71.1438 57.4298Z" fill="#FFCF2D"/>
<path d="M93.1765 57.4298C93.1765 58.9019 92.0687 60.006 90.5917 60.006C89.1146 60.006 88.0068 58.9019 88.0068 57.4298C88.0068 55.9576 89.1146 54.8535 90.5917 54.8535C91.9456 54.8535 93.1765 55.9576 93.1765 57.4298Z" fill="#FFCF2D"/>
<path d="M115.209 57.4298C115.209 58.9019 114.101 60.006 112.624 60.006C111.147 60.006 110.04 58.9019 110.04 57.4298C110.04 55.9576 111.147 54.8535 112.624 54.8535C114.101 54.8535 115.209 55.9576 115.209 57.4298Z" fill="#FFCF2D"/>
<path d="M137.118 57.4298C137.118 58.9019 136.011 60.006 134.534 60.006C133.057 60.006 131.949 58.9019 131.949 57.4298C131.949 55.9576 133.057 54.8535 134.534 54.8535C136.011 54.8535 137.118 55.9576 137.118 57.4298Z" fill="#FFCF2D"/>
<path d="M159.151 57.4298C159.151 58.9019 158.043 60.006 156.566 60.006C155.089 60.006 153.981 58.9019 153.981 57.4298C153.981 55.9576 155.089 54.8535 156.566 54.8535C158.043 54.8535 159.151 55.9576 159.151 57.4298Z" fill="#FFCF2D"/>
<path d="M181.184 57.4298C181.184 58.9019 180.076 60.006 178.599 60.006C177.122 60.006 176.014 58.9019 176.014 57.4298C176.014 55.9576 177.122 54.8535 178.599 54.8535C179.953 54.8535 181.184 55.9576 181.184 57.4298Z" fill="#FFCF2D"/>
<path d="M5.16964 2.71493C5.16964 4.18708 4.06186 5.29119 2.58482 5.29119C1.10778 5.29119 0 4.18708 0 2.71493C0 1.24278 1.10778 0.138672 2.58482 0.138672C4.06186 0.138672 5.16964 1.24278 5.16964 2.71493Z" fill="#FFCF2D"/>
<path d="M27.2024 2.71493C27.2024 4.18708 26.0946 5.29119 24.6175 5.29119C23.1405 5.29119 22.0327 4.18708 22.0327 2.71493C22.0327 1.24278 23.1405 0.138672 24.6175 0.138672C25.9715 0.138672 27.2024 1.24278 27.2024 2.71493Z" fill="#FFCF2D"/>
<path d="M49.1115 2.71493C49.1115 4.18708 48.0038 5.29119 46.5267 5.29119C45.0497 5.29119 43.9419 4.18708 43.9419 2.71493C43.9419 1.24278 45.1728 0.138672 46.5267 0.138672C48.0038 0.138672 49.1115 1.24278 49.1115 2.71493Z" fill="#FFCF2D"/>
<path d="M71.1438 2.71493C71.1438 4.18708 70.036 5.29119 68.5589 5.29119C67.0819 5.29119 65.9741 4.18708 65.9741 2.71493C65.9741 1.24278 67.205 0.138672 68.5589 0.138672C69.9129 0.138672 71.1438 1.24278 71.1438 2.71493Z" fill="#FFCF2D"/>
<path d="M93.1765 2.71493C93.1765 4.18708 92.0687 5.29119 90.5917 5.29119C89.1146 5.29119 88.0068 4.18708 88.0068 2.71493C88.0068 1.24278 89.1146 0.138672 90.5917 0.138672C91.9456 0.138672 93.1765 1.24278 93.1765 2.71493Z" fill="#FFCF2D"/>
<path d="M115.209 2.71493C115.209 4.18708 114.101 5.29119 112.624 5.29119C111.147 5.29119 110.04 4.18708 110.04 2.71493C110.04 1.24278 111.147 0.138672 112.624 0.138672C114.101 0.138672 115.209 1.24278 115.209 2.71493Z" fill="#FFCF2D"/>
<path d="M137.118 2.71493C137.118 4.18708 136.011 5.29119 134.534 5.29119C133.057 5.29119 131.949 4.18708 131.949 2.71493C131.949 1.24278 133.057 0.138672 134.534 0.138672C136.011 0.138672 137.118 1.24278 137.118 2.71493Z" fill="#FFCF2D"/>
<path d="M159.151 2.71493C159.151 4.18708 158.043 5.29119 156.566 5.29119C155.089 5.29119 153.981 4.18708 153.981 2.71493C153.981 1.24278 155.089 0.138672 156.566 0.138672C158.043 0.138672 159.151 1.24278 159.151 2.71493Z" fill="#FFCF2D"/>
<path d="M181.184 2.71493C181.184 4.18708 180.076 5.29119 178.599 5.29119C177.122 5.29119 176.014 4.18708 176.014 2.71493C176.014 1.24278 177.122 0.138672 178.599 0.138672C179.953 0.138672 181.184 1.24278 181.184 2.71493Z" fill="#FFCF2D"/>
<path d="M5.16964 20.9942C5.16964 22.4664 4.06186 23.5705 2.58482 23.5705C1.10778 23.5705 0 22.3437 0 20.9942C0 19.5221 1.10778 18.418 2.58482 18.418C4.06186 18.418 5.16964 19.5221 5.16964 20.9942Z" fill="#FFCF2D"/>
<path d="M27.2024 20.9942C27.2024 22.4664 26.0946 23.5705 24.6175 23.5705C23.1405 23.5705 22.0327 22.4664 22.0327 20.9942C22.0327 19.5221 23.1405 18.418 24.6175 18.418C25.9715 18.418 27.2024 19.5221 27.2024 20.9942Z" fill="#FFCF2D"/>
<path d="M49.1115 20.9942C49.1115 22.4664 48.0038 23.5705 46.5267 23.5705C45.0497 23.5705 43.9419 22.4664 43.9419 20.9942C43.9419 19.5221 45.0497 18.418 46.5267 18.418C48.0038 18.418 49.1115 19.5221 49.1115 20.9942Z" fill="#FFCF2D"/>
<path d="M71.1438 20.9942C71.1438 22.4664 70.036 23.5705 68.5589 23.5705C67.0819 23.5705 65.9741 22.4664 65.9741 20.9942C65.9741 19.5221 67.0819 18.418 68.5589 18.418C70.036 18.418 71.1438 19.5221 71.1438 20.9942Z" fill="#FFCF2D"/>
<path d="M93.1765 20.9942C93.1765 22.4664 92.0687 23.5705 90.5917 23.5705C89.1146 23.5705 88.0068 22.4664 88.0068 20.9942C88.0068 19.5221 89.1146 18.418 90.5917 18.418C91.9456 18.418 93.1765 19.5221 93.1765 20.9942Z" fill="#FFCF2D"/>
<path d="M115.209 20.9942C115.209 22.4664 114.101 23.5705 112.624 23.5705C111.147 23.5705 110.04 22.4664 110.04 20.9942C110.04 19.5221 111.147 18.418 112.624 18.418C114.101 18.418 115.209 19.5221 115.209 20.9942Z" fill="#FFCF2D"/>
<path d="M137.118 20.9942C137.118 22.4664 136.011 23.5705 134.534 23.5705C133.057 23.5705 131.949 22.4664 131.949 20.9942C131.949 19.5221 133.057 18.418 134.534 18.418C136.011 18.418 137.118 19.5221 137.118 20.9942Z" fill="#FFCF2D"/>
<path d="M159.151 20.9942C159.151 22.4664 158.043 23.5705 156.566 23.5705C155.089 23.5705 153.981 22.4664 153.981 20.9942C153.981 19.5221 155.089 18.418 156.566 18.418C158.043 18.418 159.151 19.5221 159.151 20.9942Z" fill="#FFCF2D"/>
<path d="M181.184 20.9942C181.184 22.4664 180.076 23.5705 178.599 23.5705C177.122 23.5705 176.014 22.4664 176.014 20.9942C176.014 19.5221 177.122 18.418 178.599 18.418C179.953 18.418 181.184 19.5221 181.184 20.9942Z" fill="#FFCF2D"/>
<path d="M5.16964 75.586C5.16964 77.0582 4.06186 78.1623 2.58482 78.1623C1.10778 78.1623 0 77.0582 0 75.586C0 74.1139 1.10778 73.0098 2.58482 73.0098C4.06186 73.0098 5.16964 74.2366 5.16964 75.586Z" fill="#FFCF2D"/>
<path d="M27.2024 75.586C27.2024 77.0582 26.0946 78.1623 24.6175 78.1623C23.1405 78.1623 22.0327 77.0582 22.0327 75.586C22.0327 74.1139 23.1405 73.0098 24.6175 73.0098C25.9715 73.0098 27.2024 74.2366 27.2024 75.586Z" fill="#FFCF2D"/>
<path d="M49.1115 75.586C49.1115 77.0582 48.0038 78.1623 46.5267 78.1623C45.0497 78.1623 43.9419 77.0582 43.9419 75.586C43.9419 74.1139 45.0497 73.0098 46.5267 73.0098C48.0038 73.0098 49.1115 74.2366 49.1115 75.586Z" fill="#FFCF2D"/>
<path d="M71.1438 75.586C71.1438 77.0582 70.036 78.1623 68.5589 78.1623C67.0819 78.1623 65.9741 77.0582 65.9741 75.586C65.9741 74.1139 67.0819 73.0098 68.5589 73.0098C70.036 73.0098 71.1438 74.2366 71.1438 75.586Z" fill="#FFCF2D"/>
<path d="M93.1765 75.586C93.1765 77.0582 92.0687 78.1623 90.5917 78.1623C89.1146 78.1623 88.0068 77.0582 88.0068 75.586C88.0068 74.1139 89.1146 73.0098 90.5917 73.0098C91.9456 73.0098 93.1765 74.2366 93.1765 75.586Z" fill="#FFCF2D"/>
<path d="M115.209 75.586C115.209 77.0582 114.101 78.1623 112.624 78.1623C111.147 78.1623 110.04 77.0582 110.04 75.586C110.04 74.1139 111.147 73.0098 112.624 73.0098C114.101 73.0098 115.209 74.2366 115.209 75.586Z" fill="#FFCF2D"/>
<path d="M137.118 75.586C137.118 77.0582 136.011 78.1623 134.534 78.1623C133.057 78.1623 131.949 77.0582 131.949 75.586C131.949 74.1139 133.057 73.0098 134.534 73.0098C136.011 73.0098 137.118 74.2366 137.118 75.586Z" fill="#FFCF2D"/>
<path d="M159.151 75.586C159.151 77.0582 158.043 78.1623 156.566 78.1623C155.089 78.1623 153.981 77.0582 153.981 75.586C153.981 74.1139 155.089 73.0098 156.566 73.0098C158.043 73.0098 159.151 74.2366 159.151 75.586Z" fill="#FFCF2D"/>
<path d="M181.184 75.586C181.184 77.0582 180.076 78.1623 178.599 78.1623C177.122 78.1623 176.014 77.0582 176.014 75.586C176.014 74.1139 177.122 73.0098 178.599 73.0098C179.953 73.0098 181.184 74.2366 181.184 75.586Z" fill="#FFCF2D"/>
<path d="M5.16964 93.8653C5.16964 95.3375 4.06186 96.4416 2.58482 96.4416C1.10778 96.4416 0 95.3375 0 93.8653C0 92.3932 1.10778 91.2891 2.58482 91.2891C4.06186 91.2891 5.16964 92.3932 5.16964 93.8653Z" fill="#FFCF2D"/>
<path d="M27.2024 93.8653C27.2024 95.3375 26.0946 96.4416 24.6175 96.4416C23.1405 96.4416 22.0327 95.3375 22.0327 93.8653C22.0327 92.3932 23.1405 91.2891 24.6175 91.2891C25.9715 91.2891 27.2024 92.3932 27.2024 93.8653Z" fill="#FFCF2D"/>
<path d="M49.1115 93.8653C49.1115 95.3375 48.0038 96.4416 46.5267 96.4416C45.0497 96.4416 43.9419 95.3375 43.9419 93.8653C43.9419 92.3932 45.0497 91.2891 46.5267 91.2891C48.0038 91.2891 49.1115 92.3932 49.1115 93.8653Z" fill="#FFCF2D"/>
<path d="M68.5589 96.4416C69.9865 96.4416 71.1438 95.2881 71.1438 93.8653C71.1438 92.4425 69.9865 91.2891 68.5589 91.2891C67.1314 91.2891 65.9741 92.4425 65.9741 93.8653C65.9741 95.2881 67.1314 96.4416 68.5589 96.4416Z" fill="#FFCF2D"/>
<path d="M93.1765 93.8653C93.1765 95.3375 92.0687 96.4416 90.5917 96.4416C89.1146 96.4416 88.0068 95.3375 88.0068 93.8653C88.0068 92.3932 89.1146 91.2891 90.5917 91.2891C91.9456 91.2891 93.1765 92.3932 93.1765 93.8653Z" fill="#FFCF2D"/>
<path d="M115.209 93.8653C115.209 95.3375 114.101 96.4416 112.624 96.4416C111.147 96.4416 110.04 95.3375 110.04 93.8653C110.04 92.3932 111.147 91.2891 112.624 91.2891C114.101 91.2891 115.209 92.3932 115.209 93.8653Z" fill="#FFCF2D"/>
<path d="M137.118 93.8653C137.118 95.3375 136.011 96.4416 134.534 96.4416C133.057 96.4416 131.949 95.3375 131.949 93.8653C131.949 92.3932 133.057 91.2891 134.534 91.2891C136.011 91.2891 137.118 92.3932 137.118 93.8653Z" fill="#FFCF2D"/>
<path d="M156.566 96.4416C157.994 96.4416 159.151 95.2881 159.151 93.8653C159.151 92.4425 157.994 91.2891 156.566 91.2891C155.139 91.2891 153.981 92.4425 153.981 93.8653C153.981 95.2881 155.139 96.4416 156.566 96.4416Z" fill="#FFCF2D"/>
<path d="M181.184 93.8653C181.184 95.3375 180.076 96.4416 178.599 96.4416C177.122 96.4416 176.014 95.3375 176.014 93.8653C176.014 92.3932 177.122 91.2891 178.599 91.2891C179.953 91.2891 181.184 92.3932 181.184 93.8653Z" fill="#FFCF2D"/>
<path d="M5.16964 112.145C5.16964 113.617 4.06186 114.721 2.58482 114.721C1.10778 114.721 0 113.617 0 112.145C0 110.672 1.10778 109.568 2.58482 109.568C4.06186 109.568 5.16964 110.672 5.16964 112.145Z" fill="#FFCF2D"/>
<path d="M27.2024 112.145C27.2024 113.617 26.0946 114.721 24.6175 114.721C23.1405 114.721 22.0327 113.617 22.0327 112.145C22.0327 110.672 23.1405 109.568 24.6175 109.568C25.9715 109.568 27.2024 110.672 27.2024 112.145Z" fill="#FFCF2D"/>
<path d="M49.1115 112.145C49.1115 113.617 48.0038 114.721 46.5267 114.721C45.0497 114.721 43.9419 113.617 43.9419 112.145C43.9419 110.672 45.0497 109.568 46.5267 109.568C48.0038 109.568 49.1115 110.672 49.1115 112.145Z" fill="#FFCF2D"/>
<path d="M71.1438 112.145C71.1438 113.617 70.036 114.721 68.5589 114.721C67.0819 114.721 65.9741 113.617 65.9741 112.145C65.9741 110.672 67.0819 109.568 68.5589 109.568C70.036 109.568 71.1438 110.672 71.1438 112.145Z" fill="#FFCF2D"/>
<path d="M93.1765 112.145C93.1765 113.617 92.0687 114.721 90.5917 114.721C89.1146 114.721 88.0068 113.617 88.0068 112.145C88.0068 110.672 89.1146 109.568 90.5917 109.568C91.9456 109.568 93.1765 110.672 93.1765 112.145Z" fill="#FFCF2D"/>
<path d="M115.209 112.145C115.209 113.617 114.101 114.721 112.624 114.721C111.147 114.721 110.04 113.617 110.04 112.145C110.04 110.672 111.147 109.568 112.624 109.568C114.101 109.568 115.209 110.672 115.209 112.145Z" fill="#FFCF2D"/>
<path d="M137.118 112.145C137.118 113.617 136.011 114.721 134.534 114.721C133.057 114.721 131.949 113.617 131.949 112.145C131.949 110.672 133.057 109.568 134.534 109.568C136.011 109.568 137.118 110.672 137.118 112.145Z" fill="#FFCF2D"/>
<path d="M159.151 112.145C159.151 113.617 158.043 114.721 156.566 114.721C155.089 114.721 153.981 113.617 153.981 112.145C153.981 110.672 155.089 109.568 156.566 109.568C158.043 109.568 159.151 110.672 159.151 112.145Z" fill="#FFCF2D"/>
<path d="M181.184 112.145C181.184 113.617 180.076 114.721 178.599 114.721C177.122 114.721 176.014 113.617 176.014 112.145C176.014 110.672 177.122 109.568 178.599 109.568C179.953 109.568 181.184 110.672 181.184 112.145Z" fill="#FFCF2D"/>
<path d="M5.16964 130.301C5.16964 131.773 4.06186 132.877 2.58482 132.877C1.10778 132.877 0 131.773 0 130.301C0 128.829 1.10778 127.725 2.58482 127.725C4.06186 127.725 5.16964 128.951 5.16964 130.301Z" fill="#FFCF2D"/>
<path d="M27.2024 130.301C27.2024 131.773 26.0946 132.877 24.6175 132.877C23.1405 132.877 22.0327 131.773 22.0327 130.301C22.0327 128.829 23.1405 127.725 24.6175 127.725C25.9715 127.725 27.2024 128.951 27.2024 130.301Z" fill="#FFCF2D"/>
<path d="M49.1115 130.301C49.1115 131.773 48.0038 132.877 46.5267 132.877C45.0497 132.877 43.9419 131.773 43.9419 130.301C43.9419 128.829 45.0497 127.725 46.5267 127.725C48.0038 127.725 49.1115 128.951 49.1115 130.301Z" fill="#FFCF2D"/>
<path d="M71.1438 130.301C71.1438 131.773 70.036 132.877 68.5589 132.877C67.0819 132.877 65.9741 131.773 65.9741 130.301C65.9741 128.829 67.0819 127.725 68.5589 127.725C70.036 127.725 71.1438 128.951 71.1438 130.301Z" fill="#FFCF2D"/>
<path d="M93.1765 130.301C93.1765 131.773 92.0687 132.877 90.5917 132.877C89.1146 132.877 88.0068 131.773 88.0068 130.301C88.0068 128.829 89.1146 127.725 90.5917 127.725C91.9456 127.725 93.1765 128.951 93.1765 130.301Z" fill="#FFCF2D"/>
<path d="M115.209 130.301C115.209 131.773 114.101 132.877 112.624 132.877C111.147 132.877 110.04 131.773 110.04 130.301C110.04 128.829 111.147 127.725 112.624 127.725C114.101 127.725 115.209 128.951 115.209 130.301Z" fill="#FFCF2D"/>
<path d="M137.118 130.301C137.118 131.773 136.011 132.877 134.534 132.877C133.057 132.877 131.949 131.773 131.949 130.301C131.949 128.829 133.057 127.725 134.534 127.725C136.011 127.725 137.118 128.951 137.118 130.301Z" fill="#FFCF2D"/>
<path d="M159.151 130.301C159.151 131.773 158.043 132.877 156.566 132.877C155.089 132.877 153.981 131.773 153.981 130.301C153.981 128.829 155.089 127.725 156.566 127.725C158.043 127.725 159.151 128.951 159.151 130.301Z" fill="#FFCF2D"/>
<path d="M181.184 130.301C181.184 131.773 180.076 132.877 178.599 132.877C177.122 132.877 176.014 131.773 176.014 130.301C176.014 128.829 177.122 127.725 178.599 127.725C179.953 127.725 181.184 128.951 181.184 130.301Z" fill="#FFCF2D"/>
</g>
<defs>
<clipPath id="clip0_2234_9590">
<rect width="181.184" height="132.739" fill="white" transform="translate(0 0.138672)"/>
</clipPath>
</defs>
</svg>
